<svg width="36" height="40" viewBox="0 0 36 40" fill="none" xmlns="http://www.w3.org/2000/svg">
<path d="M36 29V25H0V29C0 30.0609 0.421427 31.0783 1.17157 31.8284C1.92172 32.5786 2.93913 33 4 33H32C33.0609 33 34.0783 32.5786 34.8284 31.8284C35.5786 31.0783 36 30.0609 36 29Z" fill="#EE2024"/>
<path d="M36 25H0V11C0 9.93913 0.421427 8.92172 1.17157 8.17157C1.92172 7.42143 2.93913 7 4 7H32C33.0609 7 34.0783 7.42143 34.8284 8.17157C35.5786 8.92172 36 9.93913 36 11V25Z" fill="#F9F9F9"/>
<path d="M0 15H36V25H0V15Z" fill="#0A4EA2"/>
<path d="M11.8371 27.09C10.7081 26.444 8.19909 24.812 7.28209 22.602C6.35709 20.375 6.56309 17.179 6.80109 13.478L6.86109 12.542H18.8241L18.8851 13.478C19.1231 17.178 19.3291 20.373 18.4041 22.601C17.4861 24.812 14.9781 26.445 13.8481 27.09L12.8441 27.662L11.8371 27.09V27.09Z" fill="white"/>
<path d="M17.8861 13.542H7.79807C7.56007 17.249 7.37607 20.222 8.20507 22.218C9.22607 24.678 12.7211 26.438 12.8361 26.494V26.5L12.8411 26.497L12.8461 26.5V26.494C12.9611 26.437 16.4561 24.678 17.4781 22.218C18.3081 20.222 18.1251 17.248 17.8861 13.542V13.542Z" fill="#EE2024"/>
<path d="M15.865 18.109C15.865 18.109 14.464 18.242 13.233 18.274C13.2128 17.8456 13.2138 17.4164 13.236 16.988C14.209 17.048 14.881 17.234 14.881 17.234C15.128 17.234 15.328 17.034 15.328 16.787V16.181C15.328 15.934 15.128 15.734 14.881 15.734C14.881 15.734 14.142 15.86 13.313 15.913C13.384 15.131 13.469 14.478 13.469 14.478C13.469 14.231 13.269 14.031 13.022 14.031H12.417C12.17 14.031 11.97 14.231 11.97 14.478C11.97 14.478 12.062 15.144 12.14 15.921C11.6091 15.8902 11.0804 15.8278 10.557 15.734C10.31 15.734 10.11 15.934 10.11 16.181V16.787C10.11 17.034 10.31 17.234 10.557 17.234C10.557 17.234 11.196 17.028 12.227 16.979C12.241 17.209 12.251 17.432 12.251 17.625C12.251 17.786 12.245 18.013 12.235 18.274C10.993 18.241 9.54197 18.11 9.54197 18.11C9.29497 18.11 9.09497 18.31 9.09497 18.557V19.163C9.09497 19.41 9.29497 19.61 9.54197 19.61C9.54197 19.61 10.861 19.502 12.177 19.482C12.094 21.013 11.97 22.804 11.97 22.804C11.97 23.051 12.17 23.251 12.417 23.251H13.022C13.269 23.251 13.469 23.051 13.469 22.804C13.469 22.804 13.358 21.031 13.284 19.487C14.556 19.517 15.865 19.61 15.865 19.61C16.112 19.61 16.312 19.41 16.312 19.163V18.557C16.312 18.31 16.112 18.109 15.865 18.109V18.109Z" fill="white"/>
<path d="M17.0791 22.965C16.5711 21.879 15.1741 21.572 14.5111 22.899C14.0731 21.305 12.8301 21.305 12.8301 21.305C12.8301 21.305 11.5861 21.305 11.1491 22.899C10.4911 21.583 9.10906 21.875 8.59106 22.94C9.90506 25.014 12.7341 26.444 12.8381 26.495V26.5L12.8431 26.497L12.8481 26.5V26.494C12.9511 26.443 15.7581 25.025 17.0791 22.965Z" fill="#0A4EA2"/>
</svg>
