<svg width="40" height="40" viewBox="0 0 40 40" fill="none" xmlns="http://www.w3.org/2000/svg">
<rect x="0.75" y="0.75" width="38.5" height="38.5" rx="9.25" fill="white" stroke="#E8E8E8" stroke-width="1.5"/>
<path d="M14.3486 28V12H20.4736C21.6299 12 22.5908 12.1823 23.3564 12.5469C24.1273 12.9062 24.7028 13.3984 25.083 14.0234C25.4684 14.6484 25.6611 15.3568 25.6611 16.1484C25.6611 16.7995 25.5361 17.3568 25.2861 17.8203C25.0361 18.2786 24.7002 18.651 24.2783 18.9375C23.8564 19.224 23.3851 19.4297 22.8643 19.5547V19.7109C23.432 19.7422 23.9762 19.9167 24.4971 20.2344C25.0231 20.5469 25.4528 20.9896 25.7861 21.5625C26.1195 22.1354 26.2861 22.8281 26.2861 23.6406C26.2861 24.4687 26.0856 25.2135 25.6846 25.875C25.2835 26.5312 24.6794 27.0495 23.8721 27.4297C23.0648 27.8099 22.0492 28 20.8252 28H14.3486ZM17.2471 25.5781H20.3643C21.4163 25.5781 22.1742 25.3776 22.6377 24.9766C23.1064 24.5703 23.3408 24.0495 23.3408 23.4141C23.3408 22.9401 23.2236 22.513 22.9893 22.1328C22.7549 21.7474 22.4215 21.4453 21.9893 21.2266C21.557 21.0026 21.0413 20.8906 20.4424 20.8906H17.2471V25.5781ZM17.2471 18.8047H20.1143C20.6143 18.8047 21.0648 18.7135 21.4658 18.5312C21.8669 18.3437 22.182 18.0807 22.4111 17.7422C22.6455 17.3984 22.7627 16.9922 22.7627 16.5234C22.7627 15.9036 22.5439 15.3932 22.1064 14.9922C21.6742 14.5911 21.0309 14.3906 20.1768 14.3906H17.2471V18.8047Z" fill="#141618"/>
</svg>
