<svg width="40" height="40" viewBox="0 0 40 40" fill="none" xmlns="http://www.w3.org/2000/svg">
<rect x="0.75" y="0.75" width="38.5" height="38.5" rx="9.25" fill="white" stroke="#E8E8E8" stroke-width="1.5"/>
<path d="M27.0986 17.3984H24.1768C24.0934 16.9193 23.9398 16.4948 23.7158 16.125C23.4919 15.75 23.2132 15.4323 22.8799 15.1719C22.5465 14.9115 22.1663 14.7161 21.7393 14.5859C21.3174 14.4505 20.8617 14.3828 20.3721 14.3828C19.5023 14.3828 18.7314 14.6016 18.0596 15.0391C17.3877 15.4714 16.8617 16.1068 16.4814 16.9453C16.1012 17.7786 15.9111 18.7969 15.9111 20C15.9111 21.224 16.1012 22.2552 16.4814 23.0937C16.8669 23.9271 17.3929 24.5573 18.0596 24.9844C18.7314 25.4062 19.4997 25.6172 20.3643 25.6172C20.8434 25.6172 21.2913 25.5547 21.708 25.4297C22.1299 25.2995 22.5075 25.1094 22.8408 24.8594C23.1794 24.6094 23.4632 24.3021 23.6924 23.9375C23.9268 23.5729 24.0882 23.1562 24.1768 22.6875L27.0986 22.7031C26.9893 23.4635 26.7523 24.1771 26.3877 24.8438C26.0283 25.5104 25.557 26.099 24.9736 26.6094C24.3903 27.1146 23.708 27.5104 22.9268 27.7969C22.1455 28.0781 21.2783 28.2187 20.3252 28.2187C18.9189 28.2187 17.6637 27.8932 16.5596 27.2422C15.4554 26.5911 14.5856 25.651 13.9502 24.4219C13.3148 23.1927 12.9971 21.7187 12.9971 20C12.9971 18.276 13.3174 16.8021 13.958 15.5781C14.5986 14.349 15.471 13.4089 16.5752 12.7578C17.6794 12.1068 18.9294 11.7812 20.3252 11.7812C21.2158 11.7812 22.0439 11.9062 22.8096 12.1562C23.5752 12.4062 24.2575 12.7734 24.8564 13.2578C25.4554 13.737 25.9476 14.3255 26.333 15.0234C26.7236 15.7161 26.9788 16.5078 27.0986 17.3984Z" fill="#141618"/>
</svg>
