<svg width="36" height="40" viewBox="0 0 36 40" fill="none" xmlns="http://www.w3.org/2000/svg">
<path d="M36 29C36 30.0609 35.5786 31.0783 34.8284 31.8284C34.0783 32.5786 33.0609 33 32 33H4C2.93913 33 1.92172 32.5786 1.17157 31.8284C0.421427 31.0783 0 30.0609 0 29V25H36V29Z" fill="#CE2028"/>
<path d="M0 15H36V25H0V15Z" fill="#22408C"/>
<path d="M32 7H4C2.93913 7 1.92172 7.42143 1.17157 8.17157C0.421427 8.92172 0 9.93913 0 11L0 15H36V11C36 9.93913 35.5786 8.92172 34.8284 8.17157C34.0783 7.42143 33.0609 7 32 7V7Z" fill="#F9F9F9"/>
</svg>
