<svg width="36" height="40" viewBox="0 0 36 40" fill="none" xmlns="http://www.w3.org/2000/svg">
<g clip-path="url(#clip0_1107_6489)">
<path d="M1.38306 31.973C2.09175 32.6377 3.02842 33.0053 4.00006 33H32.0001C34.2091 33 36.0001 31.209 36.0001 28.5V20H17.5001L1.38306 31.973Z" fill="#D7141A"/>
<path d="M32 7H4C3.02452 6.99974 2.08292 7.35774 1.354 8.006L17.5 20H36V11C36 9.93913 35.5786 8.92172 34.8284 8.17157C34.0783 7.42143 33.0609 7 32 7V7Z" fill="#F9F9F9"/>
<path d="M1.383 31.973L17.5 20L1.354 8.00601C0.928425 8.38011 0.587524 8.84067 0.35404 9.35696C0.120556 9.87324 -0.000141693 10.4334 1.24831e-07 11V28.5C1.24831e-07 29.98 0.537 31.183 1.383 31.973Z" fill="#11457E"/>
</g>
<defs>
<clipPath id="clip0_1107_6489">
<rect width="36" height="40" fill="white"/>
</clipPath>
</defs>
</svg>
