<svg width="36" height="40" viewBox="0 0 36 40" fill="none" xmlns="http://www.w3.org/2000/svg">
<path d="M0 11.059V15H5.628L0 11.059ZM4.664 33H13V27.163L4.664 33ZM23 27.164V33H31.335L23 27.164ZM0 25V28.941L5.63 25H0ZM31.337 7H23V12.837L31.337 7ZM36 28.942V25H30.369L36 28.942ZM36 15V11.059L30.371 15H36ZM13 7H4.664L13 12.837V7Z" fill="#00247D"/>
<path d="M25.14 25L34.852 31.801C35.3263 31.3124 35.6672 30.7101 35.842 30.052L28.627 25H25.14ZM13 25H10.859L1.14798 31.8C1.66898 32.33 2.33698 32.709 3.08598 32.885L13 25.943V25ZM23 15H25.141L34.852 8.2C34.322 7.66227 33.6503 7.28602 32.915 7.115L23 14.057V15ZM10.859 15L1.14798 8.2C0.673936 8.68897 0.332797 9.29104 0.156982 9.949L7.37198 15H10.859Z" fill="#CF1B2B"/>
<path d="M36 23H21V33H23V27.164L31.335 33H32C32.5313 33.0001 33.0572 32.8941 33.5469 32.6882C34.0367 32.4823 34.4804 32.1807 34.852 31.801L25.14 25H28.627L35.842 30.052C35.935 29.715 36 29.366 36 29V28.942L30.369 25H36V23ZM0 23V25H5.63L0 28.941V29C0 30.091 0.439 31.078 1.148 31.8L10.859 25H13V25.943L3.086 32.884C3.38 32.954 3.684 33 4 33H4.664L13 27.163V33H15V23H0ZM36 11C36.0006 9.95198 35.5881 8.94595 34.852 8.2L25.141 15H23V14.057L32.915 7.115C32.6155 7.04153 32.3084 7.00294 32 7H31.337L23 12.837V7H21V17H36V15H30.371L36 11.059V11ZM13 7V12.837L4.664 7H4C3.46862 6.99977 2.94257 7.10581 2.45278 7.3119C1.96299 7.51798 1.51936 7.81993 1.148 8.2L10.859 15H7.372L0.157 9.949C0.0577802 10.2907 0.00497341 10.6442 0 11L0 11.059L5.628 15H0V17H15V7H13Z" fill="#F9F9F9"/>
<path d="M21 17V7H15V17H0V23H15V33H21V23H36V17H21Z" fill="#CF1B2B"/>
</svg>
