<svg width="36" height="40" viewBox="0 0 36 40" fill="none" xmlns="http://www.w3.org/2000/svg">
<path d="M0 16H36V24H0V16Z" fill="#F9F9F9"/>
<path d="M32 7H4C2.93913 7 1.92172 7.42143 1.17157 8.17157C0.421427 8.92172 0 9.93913 0 11L0 16H36V11C36 9.93913 35.5786 8.92172 34.8284 8.17157C34.0783 7.42143 33.0609 7 32 7V7Z" fill="#CD2A3E"/>
<path d="M4 33H32C33.0609 33 34.0783 32.5786 34.8284 31.8284C35.5786 31.0783 36 30.0609 36 29V24H0V29C0 30.0609 0.421427 31.0783 1.17157 31.8284C1.92172 32.5786 2.93913 33 4 33Z" fill="#436F4D"/>
</svg>
